<?xml version="1.0" encoding="UTF-8"?>
<svg width="50px" height="50px" viewBox="0 0 50 50" version="1.1" xmlns="http://www.w3.org/2000/svg" xmlns:xlink="http://www.w3.org/1999/xlink">
    <title>facebook連結圖示</title>
    <defs>
        <linearGradient x1="4.59658894%" y1="4.59671458%" x2="98.8737961%" y2="98.8735719%" id="linearGradient-1">
            <stop stop-color="#3B5998" offset="0%"></stop>
            <stop stop-color="#336699" offset="100%"></stop>
        </linearGradient>
    </defs>
    <g stroke="none" stroke-width="1" fill="none" fill-rule="evenodd">
        <g transform="translate(-384.000000, -158.000000)" fill="url(#linearGradient-1)" fill-rule="nonzero">
            <g transform="translate(384.000000, 158.000000)">
                <g>
                    <path d="M35.4868848,0 L14.5132286,0 C6.49784456,0 0,6.49771644 0,14.5131957 L0,35.4868043 C0,43.5022836 6.49784456,50 14.5132286,50 L25.5218526,50 L25.5218526,31.4095034 L19.2242453,31.4095034 L19.2242453,23.5374554 L25.5218526,23.5374554 L25.5218526,18.8142039 C25.5218526,12.3292999 29.182361,7.79335931 34.9682637,7.79335931 C37.7391565,7.79335931 39.6914125,7.79335931 41.265871,7.79335931 L41.265871,15.6654073 L38.1170673,15.6654073 C34.9714384,15.6654073 33.3938051,17.2397489 33.3938051,20.3886588 L33.3938051,23.5374554 L41.265871,23.5374554 L39.6914125,31.4095034 L33.3938051,31.4095034 L33.3938051,50 L35.4867714,50 C43.5022688,50 50,43.5022836 50,35.4868043 L50,14.5131957 C50.0001134,6.49782982 43.5023822,0 35.4868848,0 Z"></path>
                </g>
            </g>
        </g>
    </g>
</svg>