<?xml version="1.0" encoding="UTF-8"?>
<svg width="50px" height="49px" viewBox="0 0 50 49" version="1.1" xmlns="http://www.w3.org/2000/svg" xmlns:xlink="http://www.w3.org/1999/xlink">
    <title>github連結圖示</title>
    <g stroke="none" stroke-width="1" fill="none" fill-rule="evenodd">
        <g transform="translate(-495.000000, -158.000000)" fill="#181616">
            <g transform="translate(384.000000, 158.000000)">
                <g transform="translate(111.000000, -0.000000)">
                    <path d="M24.9984371,0 C11.1934234,0 0,11.2091702 0,25.0367349 C0,36.0972216 7.16116529,45.4814976 17.0980245,48.7932267 C18.3483371,49.0217298 18.7421855,48.2798774 18.7421855,47.6162795 C18.7421855,47.0215455 18.7546887,45.3594206 18.7421855,43.2700263 C11.7888847,44.7834677 10.3478995,39.9723829 10.3478995,39.9723829 C9.21167792,37.0800978 7.57376844,36.3100738 7.57376844,36.3100738 C5.30445111,34.7575051 7.74412353,34.7872418 7.74412353,34.7872418 C10.2525631,34.9640969 11.5747687,37.3680742 11.5747687,37.3680742 C13.8050138,41.1915876 17.4246687,40.0866345 18.8484621,39.448078 C19.0766442,37.8297756 19.7236809,36.7263876 20.437922,36.1003518 C14.8865341,35.4680557 9.05070018,33.320753 9.05070018,23.7267551 C9.05070018,20.9925439 10.0243811,18.7591614 11.6232183,17.0093915 C11.3653413,16.3770953 10.5057514,13.8306949 11.8685921,10.382803 C11.8685921,10.382803 13.9675544,9.70981456 18.7421855,12.9511147 C20.7364341,12.3955079 22.8760315,12.1184871 25.0015629,12.1090966 C27.1255314,12.1184871 29.2635659,12.3955079 31.2609402,12.9511147 C36.0355714,9.71137965 38.1314079,10.382803 38.1314079,10.382803 C39.4942486,13.8306949 38.6362216,16.3770953 38.3799075,17.0093915 C39.9787447,18.7591614 40.9492998,20.9925439 40.9492998,23.7267551 C40.9492998,33.3457945 35.1040885,35.4617953 29.533946,36.0800056 C30.4310453,36.8547249 31.2453113,38.3572107 31.2453113,40.6923241 C31.2453113,43.8225028 31.2453113,46.7993028 31.2453113,47.6225399 C31.2453113,48.2923981 31.6485371,49.0326854 32.9176044,48.7900965 C42.8450863,45.4736721 50,36.0940914 50,25.0367349 C50,11.2091702 38.8065766,0 24.9984371,0 Z" ></path>
                </g>
            </g>
        </g>
    </g>
</svg>