<?xml version="1.0" encoding="UTF-8"?>
<svg width="45px" height="39px" viewBox="0 0 45 39" version="1.1" xmlns="http://www.w3.org/2000/svg" xmlns:xlink="http://www.w3.org/1999/xlink">
    <title>programming-code</title>
    <g stroke="none" stroke-width="1" fill="none" fill-rule="evenodd">
        <g transform="translate(0.000000, -164.000000)" fill="#263242" fill-rule="nonzero">
            <g transform="translate(0.000000, 164.000000)">
                <g transform="translate(0.000000, 0.250000)">
                    <path d="M42.2961102,0 L2.70423397,0 C1.21282048,0 0,1.14463983 0,2.55159522 L0,36.0199416 C0,37.426897 1.21282048,38.5714286 2.70423397,38.5714286 L42.2962249,38.5714286 C43.7871794,38.5714286 44.9999999,37.426897 44.9999999,36.0199416 L44.9999999,2.55159522 C45.0003442,1.1447481 43.7870647,0 42.2961102,0 Z M31.5447597,2.80616813 C31.5447597,2.42258349 31.8740211,2.11154951 32.2798961,2.11154951 L33.0148636,2.11154951 C33.4207386,2.11154951 33.75,2.42250368 33.75,2.80616813 L33.75,3.59337063 C33.75,3.97695527 33.4207386,4.28790944 33.0148636,4.28790944 L32.2798961,4.28790944 C31.8740211,4.28790944 31.5447597,3.97695527 31.5447597,3.59337063 L31.5447597,2.80616813 Z M35.7954545,2.80616813 C35.7954545,2.42258349 36.0964882,2.11154951 36.4677578,2.11154951 L37.1402157,2.11154951 C37.5117172,2.11154951 37.812519,2.42250368 37.812519,2.80616813 L37.812519,3.59337063 C37.812519,3.97695527 37.5114854,4.28790944 37.1402157,4.28790944 L36.4677578,4.28790944 C36.0964882,4.28790944 35.7954545,3.97695527 35.7954545,3.59337063 L35.7954545,2.80616813 Z M41.8254923,3.59337063 C41.8254923,3.97695527 41.5244702,4.28790944 41.1532147,4.28790944 L40.4807827,4.28790944 C40.1092181,4.28790944 39.8084278,3.97695527 39.8084278,3.59337063 L39.8084278,2.80616813 C39.8084278,2.42258349 40.1094499,2.11154951 40.4807827,2.11154951 L41.1532147,2.11154951 C41.5245474,2.11154951 41.8254923,2.42250368 41.8254923,2.80616813 L41.8254923,3.59337063 Z M41.7548733,35.8963417 L3.06818182,35.8963417 L3.06818182,6.33080216 L41.7548733,6.33080216 L41.7548733,35.8963417 L41.7548733,35.8963417 Z" ></path>
                    <path d="M9.35198476,22.218076 L16.2960835,25.5837257 C16.4756192,25.670345 16.6667129,25.7142857 16.8643011,25.7142857 C17.1216612,25.7142857 17.3725267,25.6381066 17.5905893,25.4935498 C17.9810325,25.2334622 18.2142857,24.7902694 18.2142857,24.3079544 L18.2142857,24.2710122 C18.2142857,23.7258265 17.9077212,23.2251551 17.4331792,22.9954704 L13.0900903,20.8922835 L17.4331792,18.7888672 C17.9077212,18.558953 18.2142857,18.0583964 18.2142857,17.5134401 L18.2142857,17.476842 C18.2142857,16.9938387 17.9810325,16.5504164 17.5905893,16.2912467 C17.3747283,16.147493 17.1232023,16.0714286 16.8635306,16.0714286 C16.6677036,16.0714286 16.4713262,16.1162871 16.2955332,16.201415 L9.35187468,19.5667205 C8.87777295,19.7966347 8.5714286,20.2974208 8.5714286,20.8421475 L8.5714286,20.9427637 C8.57131852,21.4866873 8.87744272,21.987244 9.35198476,22.218076 Z" ></path>
                    <path d="M18.4805779,30.4385573 C18.7405493,30.8347624 19.1586954,31.0714286 19.599099,31.0714286 L19.6348013,31.0714286 C20.2394806,31.0714286 20.7692529,30.6403715 20.9535264,29.9998253 L25.6484907,13.7992012 C25.7831652,13.3316565 25.7084841,12.8155456 25.4483997,12.4185856 C25.1884283,12.0222546 24.7702821,11.7857143 24.3297656,11.7857143 L24.2941763,11.7857143 C23.689271,11.7857143 23.1589338,12.2166455 22.9746603,12.8571918 L18.2792441,29.059074 C18.1455864,29.5272478 18.2208324,30.0426038 18.4805779,30.4385573 Z" ></path>
                    <path d="M25.7142857,17.5133254 C25.7142857,18.057708 26.0206231,18.5583794 26.4952644,18.7894408 L30.8382541,20.8922835 L26.4952644,22.9952409 C26.0208432,23.2251551 25.7142857,23.7258265 25.7142857,24.2707827 L25.7142857,24.307725 C25.7142857,24.7901547 25.9473134,25.2333475 26.338188,25.4935498 C26.5554751,25.6378771 26.806445,25.7142857 27.0641294,25.7142857 C27.261493,25.7142857 27.4524723,25.670345 27.6332146,25.5832668 L34.5767146,22.2177318 C35.0508055,21.987244 35.3571429,21.4866873 35.3571429,20.9425342 L35.3571429,20.8419181 C35.3571429,20.2971913 35.0508055,19.7964052 34.5762743,19.566491 L27.6327743,16.2011855 C27.4576458,16.1162871 27.261493,16.0714286 27.0656705,16.0714286 C26.806445,16.0714286 26.5545945,16.1472635 26.3387384,16.2907878 C25.9478638,16.5504164 25.7146159,16.993724 25.7146159,17.4767273 L25.7146159,17.5132107 L25.7142857,17.5132107 L25.7142857,17.5133254 Z" ></path>
                </g>
            </g>
        </g>
    </g>
</svg>