<?xml version="1.0" encoding="UTF-8"?>
<svg width="53px" height="48px" viewBox="0 0 53 48" version="1.1" xmlns="http://www.w3.org/2000/svg" xmlns:xlink="http://www.w3.org/1999/xlink">
    <!-- Generator: Sketch 53.2 (72643) - https://sketchapp.com -->
    <title>放大鏡</title>
    <desc>Created with Sketch.</desc>
    <g id="symbol" stroke="none" stroke-width="1" fill="none" fill-rule="evenodd">
        <g id="1024x640-功能選單" transform="translate(-709.000000, -9.000000)">
            <g id="放大鏡" transform="translate(709.000000, 9.000000)">
                <g id="поиск">
                    <path d="M18.125,3.64444444 C25.875,3.64444444 32.25,9.45277778 32.25,16.5138889 C32.25,23.575 25.875,29.3833333 18.125,29.3833333 C10.375,29.3833333 4,23.6888889 4,16.5138889 C4,9.33888889 10.25,3.64444444 18.125,3.64444444 L18.125,3.64444444 Z M18.125,0.227777778 C8.25,0.227777778 0.25,7.51666667 0.25,16.5138889 C0.25,25.5111111 8.25,32.8 18.125,32.8 C28,32.8 36,25.5111111 36,16.5138889 C36,7.51666667 27.875,0.227777778 18.125,0.227777778 L18.125,0.227777778 Z" id="Shape" fill="#979797" fill-rule="nonzero"></path>
                    <path d="M29.75,26.9916667 L33.875,30.75" id="Shape" stroke="#979797" stroke-width="3"></path>
                    <path d="M49.75,45.3277778 L35,31.8888889" id="Shape" stroke="#979797" stroke-width="5" stroke-linecap="round"></path>
                </g>
            </g>
        </g>
    </g>
</svg>