<?xml version="1.0" encoding="UTF-8"?>
<svg width="31px" height="32px" viewBox="0 0 31 32" version="1.1" xmlns="http://www.w3.org/2000/svg" xmlns:xlink="http://www.w3.org/1999/xlink">
    <title>搜尋按鈕</title>
    <g id="symbol" stroke="none" stroke-width="1" fill="none" fill-rule="evenodd">
        <g id="16:10,-16:9-大螢幕最小標題列" transform="translate(-1391.000000, -14.000000)" fill="#FEF7F3" fill-rule="nonzero">
            <path d="M1421.31189,41.1991837 L1415.32754,35.0736842 C1415.05744,34.7972073 1414.69129,34.643609 1414.30714,34.643609 L1413.32876,34.643609 C1414.98541,32.4748013 1415.96979,29.7468958 1415.96979,26.779377 C1415.96979,19.72 1410.3816,14 1403.4849,14 C1396.58819,14 1391,19.72 1391,26.779377 C1391,33.838754 1396.58819,39.558754 1403.4849,39.558754 C1406.38403,39.558754 1409.04908,38.5511493 1411.16791,36.8554243 L1411.16791,37.8568851 C1411.16791,38.2500967 1411.31797,38.6248765 1411.58808,38.9013534 L1417.57242,45.0268528 C1418.13664,45.6043824 1419.049,45.6043824 1419.60722,45.0268528 L1421.30589,43.2881203 C1421.87011,42.7105908 1421.87011,41.7767132 1421.31189,41.1991837 Z M1403.4849,34.643609 C1399.24123,34.643609 1395.80188,31.1292803 1395.80188,26.779377 C1395.80188,22.4356176 1399.23523,18.915145 1403.4849,18.915145 C1407.72856,18.915145 1411.16791,22.4294737 1411.16791,26.779377 C1411.16791,31.1231364 1407.73456,34.643609 1403.4849,34.643609 Z" id="展開搜尋輸入列和搜尋按鈕"></path>
        </g>
    </g>
</svg>