<?xml version="1.0" encoding="UTF-8"?>
<svg width="41px" height="50px" viewBox="0 0 41 50" version="1.1" xmlns="http://www.w3.org/2000/svg" xmlns:xlink="http://www.w3.org/1999/xlink">
    <title>stack overflow連結圖示</title>
    <g stroke="none" stroke-width="1" fill="none" fill-rule="evenodd">
        <g transform="translate(-612.000000, -158.000000)">
            <g transform="translate(384.000000, 158.000000)">
                <g transform="translate(222.000000, 0.000000)">
                    <polygon points="0 0 50 0 50 50 0 50"></polygon>
                    <g transform="translate(5.952381, 0.000000)">
                        <path d="M35.3138889,20.4257812 L23.9198413,4.11640625 L20.3507937,6.49140625 L31.7452381,22.8003906 L35.3138889,20.4257812 Z M31.0428571,23.3789062 L13.6238095,13.3503906 L11.4285714,16.9808594 L28.8484127,27.0097656 L31.0428571,23.3789062 Z M28.493254,28.2011719 L8.96388889,23.0769531 L7.84166667,27.1480469 L27.3722222,32.2730469 L28.493254,28.2011719 Z M27.1646825,33.7027344 L7.02738095,31.8917969 L6.63095238,36.090625 L26.7686508,37.9 L27.1646825,33.7027344 Z M40.3440476,19.4488281 L36.8845238,0 L32.6281746,0.720703125 L36.0873016,20.1695312 L40.3440476,19.4488281 Z M26.6781746,43.3253906 L6.45436508,43.3347656 L6.45277778,39.11875 L26.6757937,39.1085937 L26.6781746,43.3253906 Z" fill="#FF810F"></path>
                        <polygon fill="#BEBCBC" points="30.1126984 29.4566406 30.1126984 46.6921875 3.58730159 46.6921875 3.58730159 29.4566406 0.132142857 29.4566406 0.132142857 50 33.5503968 50 33.5503968 29.4566406"></polygon>
                    </g>
                </g>
            </g>
        </g>
    </g>
</svg>