<?xml version="1.0" encoding="UTF-8"?>
<svg width="50px" height="37px" viewBox="0 0 50 37" version="1.1" xmlns="http://www.w3.org/2000/svg" xmlns:xlink="http://www.w3.org/1999/xlink">
    <!-- Generator: Sketch 53.2 (72643) - https://sketchapp.com -->
    <title>if_Youtube_1298778</title>
    <desc>Created with Sketch.</desc>
    <g id="symbol" stroke="none" stroke-width="1" fill="none" fill-rule="evenodd">
        <g id="1024x640-功能選單" transform="translate(-718.000000, -166.000000)">
            <g id="Group-4" transform="translate(384.000000, 158.000000)">
                <g id="if_Youtube_1298778" transform="translate(334.000000, 0.000000)">
                    <polygon id="Rectangle-path" points="0 0 50 0 50 50 0 50"></polygon>
                    <path d="M49.5,16.0370402 C49.5,16.0370402 49.0109375,12.5379336 47.5125,10.9973498 C45.6109375,8.97422565 43.4796875,8.9647718 42.503125,8.84738648 C35.50625,8.33333333 25.0109375,8.33333333 25.0109375,8.33333333 L24.9890625,8.33333333 C24.9890625,8.33333333 14.49375,8.33333333 7.496875,8.84738648 C6.51875,8.9647718 4.3890625,8.97422565 2.4859375,10.9973498 C0.9875,12.5383275 0.5,16.0370402 0.5,16.0370402 C0.5,16.0370402 0,20.1471019 0,24.2551941 L0,28.1080323 C0,32.2177001 0.5,36.3261862 0.5,36.3261862 C0.5,36.3261862 0.9875,39.8252928 2.4859375,41.3658766 C4.3890625,43.3890008 6.8875,43.3255812 8,43.5367172 C12,43.9270824 25,44.047619 25,44.047619 C25,44.047619 35.50625,44.0318626 42.503125,43.5178095 C43.4796875,43.3988485 45.6109375,43.3893947 47.5125,41.3662706 C49.0109375,39.8252928 49.5,36.3265801 49.5,36.3265801 C49.5,36.3265801 50,32.218094 50,28.1080323 L50,24.2551941 C50,20.1471019 49.5,16.0370402 49.5,16.0370402 Z M19.8375,32.7766591 L19.8359375,18.5096161 L33.3453125,25.667757 L19.8375,32.7766591 Z" id="Youtube" fill="#CE1312"></path>
                </g>
            </g>
        </g>
    </g>
</svg>